<?xml version="1.0" standalone="no"?>
<!DOCTYPE svg PUBLIC "-//W3C//DTD SVG 20010904//EN"
 "http://www.w3.org/TR/2001/REC-SVG-20010904/DTD/svg10.dtd">
<svg version="1.0" xmlns="http://www.w3.org/2000/svg"
 width="499.000000pt" height="364.000000pt" viewBox="0 0 499.000000 364.000000"
 preserveAspectRatio="xMidYMid meet">

<g transform="translate(0.000000,364.000000) scale(0.100000,-0.100000)"
fill="#000000" stroke="none">
<path d="M0 1820 l0 -1820 2495 0 2495 0 0 1820 0 1820 -2495 0 -2495 0 0
-1820z m2920 806 c729 -96 1245 -383 1354 -755 50 -172 -12 -359 -174 -521
-242 -242 -644 -404 -1185 -477 -184 -24 -666 -24 -850 0 -739 99 -1249 383
-1359 756 -76 260 103 540 475 740 265 143 592 228 1054 275 97 10 566 -3 685
-18z"/>
<path d="M2342 2330 c-109 -29 -187 -74 -272 -160 -87 -86 -131 -163 -160
-276 -36 -141 -18 -294 52 -427 42 -81 164 -203 245 -245 133 -70 286 -88 427
-52 113 29 190 73 276 160 87 86 131 163 160 276 36 141 18 294 -52 427 -42
81 -164 203 -245 245 -132 69 -291 88 -431 52z"/>
</g>
</svg>
