<?xml version="1.0" standalone="no"?>
<!DOCTYPE svg PUBLIC "-//W3C//DTD SVG 20010904//EN"
 "http://www.w3.org/TR/2001/REC-SVG-20010904/DTD/svg10.dtd">
<svg version="1.0" xmlns="http://www.w3.org/2000/svg"
 width="498.000000pt" height="340.000000pt" viewBox="0 0 498.000000 340.000000"
 preserveAspectRatio="xMidYMid meet">

<g transform="translate(0.000000,340.000000) scale(0.100000,-0.100000)"
fill="#000000" stroke="none">
<path d="M33 3388 c16 -10 44 -10 51 0 2 4 -11 8 -29 8 -21 0 -30 -3 -22 -8z"/>
<path d="M135 3380 c22 -25 12 -39 -16 -21 -31 19 -35 5 -4 -15 24 -16 27 -16
42 -1 15 15 15 18 -2 37 -10 11 -23 20 -28 20 -6 0 -2 -9 8 -20z"/>
<path d="M1253 3389 c10 -6 23 -6 33 -1 12 7 8 9 -18 10 -26 1 -30 -1 -15 -9z"/>
<path d="M1660 3385 c-7 -8 -8 -15 -2 -15 5 0 15 7 22 15 7 8 8 15 2 15 -5 0
-15 -7 -22 -15z"/>
<path d="M3761 3345 l-30 -56 35 -17 c40 -18 69 -8 69 24 0 10 8 25 18 32 22
17 22 27 -3 52 -34 34 -56 25 -89 -35z m70 35 c22 -12 25 -38 5 -46 -8 -3 -24
-1 -35 6 -17 9 -19 15 -11 30 12 23 15 24 41 10z m-28 -55 c19 -14 20 -46 2
-52 -22 -7 -48 23 -41 45 8 25 14 27 39 7z"/>
<path d="M4358 3387 c20 -6 36 -6 42 -1 5 5 -8 10 -33 10 l-42 2 33 -11z"/>
<path d="M228 3378 c36 -18 28 -40 -12 -33 -24 5 -35 3 -39 -8 -7 -18 2 -31
31 -46 27 -14 24 -16 46 27 16 32 16 35 0 53 -9 10 -24 19 -33 18 -11 0 -9 -4
7 -11z m-1 -46 c17 -11 0 -34 -20 -26 -9 3 -17 12 -17 20 0 15 18 18 37 6z"/>
<path d="M4262 3366 c-7 -15 -12 -31 -12 -35 0 -12 98 -53 109 -46 5 3 14 20
20 37 10 30 9 31 -4 14 -8 -11 -15 -23 -15 -28 0 -9 -34 -11 -43 -2 -3 4 -2
15 4 26 6 11 8 23 4 26 -3 3 -8 -4 -12 -16 -6 -23 -12 -26 -37 -16 -12 5 -13
10 -5 26 6 10 9 24 7 30 -2 6 -9 -2 -16 -16z"/>
<path d="M1130 3372 c0 -5 21 -24 47 -42 l46 -33 23 28 c13 16 21 31 19 34 -3
2 -13 -7 -24 -20 l-19 -24 -46 33 c-25 18 -46 29 -46 24z"/>
<path d="M1910 3376 c0 -8 78 -56 90 -56 5 0 10 5 10 11 0 5 -4 7 -10 4 -5 -3
-20 4 -33 17 -22 21 -57 36 -57 24z"/>
<path d="M1535 3328 c-15 -22 -14 -24 12 -45 15 -13 33 -23 38 -23 6 0 -3 11
-20 24 -24 20 -28 27 -17 37 10 11 18 10 45 -5 l32 -17 -30 25 c-37 32 -40 32
-60 4z"/>
<path d="M1866 3334 c-34 -34 -5 -83 33 -56 29 22 42 25 54 13 8 -8 5 -17 -13
-36 -13 -14 -18 -25 -12 -25 13 0 42 39 42 57 0 7 -9 17 -19 22 -14 8 -25 6
-45 -10 -40 -31 -64 -5 -29 33 20 22 11 24 -11 2z"/>
<path d="M290 3320 c-32 -32 -21 -80 18 -80 9 0 6 6 -8 18 -19 16 -21 22 -11
40 13 24 46 30 54 10 4 -8 6 -7 6 3 1 9 -6 20 -15 23 -22 8 -22 8 -44 -14z"/>
<path d="M372 3280 c-19 -33 -30 -60 -25 -60 4 0 16 14 25 30 31 55 67 24 37
-32 -6 -11 -8 -22 -5 -25 3 -3 13 11 23 32 17 36 17 37 -4 55 -15 12 -20 24
-16 39 9 35 -1 24 -35 -39z"/>
<path d="M4826 3284 c-21 -25 -36 -47 -33 -50 2 -3 16 9 31 26 27 33 33 28 16
-14 -8 -21 -7 -26 6 -26 8 0 24 5 35 10 27 15 24 1 -8 -32 -15 -15 -22 -28
-16 -28 6 0 27 20 47 45 40 48 36 54 -19 31 -38 -16 -40 -14 -24 32 18 51 6
53 -35 6z"/>
<path d="M3869 3273 c-12 -19 -19 -37 -15 -40 3 -3 13 9 23 26 14 25 23 30 41
26 13 -3 21 -2 18 3 -3 5 -15 12 -26 15 -15 4 -25 -4 -41 -30z"/>
<path d="M1485 3259 c-12 -18 4 -57 26 -64 21 -7 49 10 49 30 0 30 -61 58 -75
34z m50 -15 c29 -29 4 -55 -30 -31 -11 9 -16 20 -12 31 8 20 21 20 42 0z"/>
<path d="M3938 3234 c-15 -32 0 -59 33 -59 26 0 47 40 36 69 -10 26 -56 20
-69 -10z m58 2 c7 -19 -13 -56 -30 -56 -19 0 -28 28 -16 51 12 22 38 25 46 5z"/>
<path d="M456 3215 c-22 -34 -20 -50 10 -70 14 -9 27 -15 28 -13 23 32 45 78
37 78 -6 0 -11 -3 -11 -7 0 -5 -9 -19 -19 -33 -16 -21 -21 -22 -35 -11 -15 13
-15 17 3 47 23 39 12 47 -13 9z"/>
<path d="M1830 3222 c0 -5 9 -17 20 -27 16 -14 17 -20 8 -27 -9 -5 -5 -8 10
-8 l23 0 -21 30 c-23 32 -40 46 -40 32z"/>
<path d="M4068 3208 c12 -6 22 -17 22 -25 0 -16 -1 -16 -34 -4 -18 7 -28 6
-36 -4 -16 -20 -5 -45 19 -45 11 0 21 -5 23 -11 2 -6 12 5 23 25 22 40 14 69
-21 73 -16 2 -15 1 4 -9z m0 -55 c2 -8 -5 -13 -17 -13 -12 0 -21 6 -21 16 0
18 31 15 38 -3z"/>
<path d="M1426 3197 c5 -12 67 -47 84 -47 6 0 10 5 10 11 0 5 -4 8 -10 4 -11
-7 -50 16 -50 30 0 6 -9 11 -19 12 -12 1 -18 -3 -15 -10z"/>
<path d="M4943 3189 c9 -5 17 -17 17 -24 0 -17 -16 -20 -25 -5 -11 18 -45 11
-45 -10 0 -26 36 -46 55 -30 31 26 25 81 -9 80 -6 0 -3 -5 7 -11z m-5 -47 c3
-9 -2 -13 -14 -10 -9 1 -19 9 -22 16 -3 9 2 13 14 10 9 -1 19 -9 22 -16z"/>
<path d="M1800 3184 c0 -3 8 -16 17 -31 l17 -25 -35 6 -34 6 35 -14 c55 -23
64 -20 41 13 -15 21 -18 30 -9 33 7 3 2 7 -10 10 -12 4 -22 4 -22 2z"/>
<path d="M4200 3170 c-9 -16 -15 -19 -23 -11 -20 20 -46 11 -63 -21 -16 -31
-16 -32 6 -50 13 -10 28 -17 33 -15 13 4 71 106 64 113 -3 3 -11 -4 -17 -16z
m-27 -22 c7 -21 -15 -58 -35 -58 -20 0 -23 21 -8 51 12 21 36 25 43 7z"/>
<path d="M554 3165 c-4 -9 1 -24 10 -34 9 -10 16 -21 16 -24 0 -13 -23 -7 -42
10 -10 9 -18 11 -18 5 0 -16 40 -41 56 -35 19 7 18 32 -3 55 -21 23 -9 36 19
19 17 -10 19 -10 16 1 -7 20 -47 22 -54 3z"/>
<path d="M1399 3128 c-10 -18 -8 -24 12 -39 13 -10 29 -18 34 -18 6 0 0 7 -12
16 -24 16 -31 53 -10 53 6 0 21 -7 31 -15 11 -8 25 -15 30 -15 18 1 -38 40
-56 40 -10 0 -22 -10 -29 -22z"/>
<path d="M4213 3090 c-11 -57 -3 -63 35 -27 l25 22 -7 -37 c-4 -21 -3 -38 2
-38 4 0 23 16 42 35 37 38 31 49 -8 13 l-24 -23 2 30 c3 49 1 50 -29 21 l-29
-28 5 41 c8 58 -2 51 -14 -9z"/>
<path d="M627 3112 c-23 -25 -21 -59 2 -72 25 -13 31 -13 31 0 0 6 -5 9 -11 8
-14 -4 -36 29 -26 38 3 4 17 0 31 -9 13 -9 26 -13 30 -10 12 12 6 51 -10 57
-24 9 -29 8 -47 -12z m50 -7 c3 -9 3 -18 1 -21 -9 -9 -38 8 -38 22 0 19 29 18
37 -1z"/>
<path d="M4960 3098 c-12 -22 -12 -22 6 -6 10 10 15 20 12 24 -4 3 -12 -5 -18
-18z"/>
<path d="M735 3097 c-5 -7 -19 -29 -29 -50 -16 -31 -17 -40 -6 -50 10 -10 12
-9 8 3 -6 16 29 73 40 66 4 -2 7 7 7 20 0 27 -5 29 -20 11z"/>
<path d="M1740 3091 c-14 -27 32 -66 61 -50 24 12 24 31 1 52 -25 22 -49 21
-62 -2z m55 -7 c19 -19 7 -38 -21 -32 -23 4 -32 48 -10 48 8 0 22 -7 31 -16z"/>
<path d="M2742 3083 c-48 -4 -53 -6 -50 -26 3 -19 10 -22 56 -25 l52 -3 0 30
c0 17 -1 30 -2 29 -2 -1 -27 -3 -56 -5z"/>
<path d="M1385 3056 c17 -14 35 -26 40 -26 11 1 -20 27 -50 41 -11 6 -6 -1 10
-15z"/>
<path d="M785 3060 c-11 -5 -16 -9 -12 -9 4 -1 -3 -16 -16 -33 -14 -18 -22
-39 -19 -47 3 -9 10 -2 18 18 8 18 22 35 32 38 10 2 18 13 19 24 1 10 1 19 0
18 -1 0 -11 -4 -22 -9z"/>
<path d="M1300 3053 c0 -10 83 -63 99 -63 6 0 11 5 11 11 0 5 -5 7 -10 4 -6
-4 -25 4 -43 17 -44 34 -57 40 -57 31z"/>
<path d="M1670 3053 c1 -10 76 -63 90 -63 5 0 12 5 16 12 4 7 3 8 -4 4 -7 -4
-32 7 -57 24 -25 17 -45 27 -45 23z"/>
<path d="M4368 3048 c34 -17 29 -39 -8 -32 -40 9 -53 -21 -21 -48 13 -10 26
-18 30 -18 6 0 41 64 41 75 0 11 -34 35 -48 34 -13 0 -11 -3 6 -11z m2 -48
c11 -6 12 -12 4 -20 -13 -13 -44 -2 -44 16 0 16 18 18 40 4z"/>
<path d="M1267 3009 c-44 -25 7 -103 62 -97 21 2 26 9 28 33 2 28 1 28 -5 5
-10 -33 -38 -37 -68 -9 -30 28 -31 47 -2 58 12 4 17 10 12 14 -5 3 -17 1 -27
-4z"/>
<path d="M4426 2972 c-6 -40 -13 -55 -29 -61 -12 -5 -16 -10 -10 -14 12 -7
117 82 108 91 -3 3 -16 -5 -29 -17 l-25 -23 -3 38 c-3 38 -3 38 -12 -14z"/>
<path d="M810 2995 c-10 -13 -9 -19 5 -35 13 -15 15 -24 8 -31 -8 -8 -17 -4
-32 12 -11 13 -21 18 -21 11 0 -16 47 -45 60 -37 13 8 13 31 -2 55 -17 27 -2
37 22 15 24 -21 27 -14 4 9 -19 20 -28 20 -44 1z"/>
<path d="M2710 3000 c0 -5 5 -10 11 -10 5 0 7 5 4 10 -3 6 -8 10 -11 10 -2 0
-4 -4 -4 -10z"/>
<path d="M2770 3000 c0 -5 5 -10 11 -10 5 0 7 5 4 10 -3 6 -8 10 -11 10 -2 0
-4 -4 -4 -10z"/>
<path d="M1660 2979 c-8 -15 -8 -24 0 -34 28 -33 80 -25 80 12 0 10 -6 8 -19
-8 -23 -28 -38 -20 -21 10 6 12 8 26 5 31 -10 17 -34 11 -45 -11z m40 2 c0
-13 -26 -32 -33 -24 -8 7 11 33 24 33 5 0 9 -4 9 -9z"/>
<path d="M923 2907 c-29 -18 -53 -36 -53 -40 0 -5 5 -5 11 -1 20 12 59 -18 59
-45 0 -34 14 -17 34 43 17 54 20 76 9 75 -5 0 -32 -15 -60 -32z m47 -10 c0 -7
-6 -21 -13 -31 -12 -17 -14 -17 -27 -1 -12 15 -12 19 5 31 24 18 35 18 35 1z"/>
<path d="M1613 2914 c-20 -21 -15 -42 12 -60 24 -16 27 -15 44 0 23 21 39 3
19 -21 -11 -14 -11 -16 2 -11 29 9 23 45 -12 71 -48 35 -52 36 -65 21z m41
-20 c23 -22 20 -34 -8 -34 -28 0 -40 14 -32 35 7 19 21 19 40 -1z"/>
<path d="M1974 2853 c3 -10 10 -37 16 -60 13 -52 26 -55 34 -8 10 49 21 51 35
4 7 -22 16 -37 20 -34 11 6 35 104 28 112 -3 3 -11 -13 -17 -36 -6 -23 -13
-41 -15 -41 -2 0 -9 18 -15 40 -13 47 -26 45 -36 -5 -8 -46 -21 -44 -29 5 -4
22 -11 40 -17 40 -5 0 -7 -8 -4 -17z"/>
<path d="M2133 2810 c0 -36 2 -51 4 -35 3 17 9 36 15 43 7 8 7 12 0 12 -6 0
-13 10 -15 23 -2 12 -4 -7 -4 -43z"/>
<path d="M2321 2818 c0 -31 2 -59 7 -61 4 -3 6 16 4 41 -5 73 -10 82 -11 20z"/>
<path d="M2501 2808 c1 -42 3 -55 8 -38 4 14 17 27 31 31 l25 6 -25 4 c-41 7
-33 43 10 50 l35 6 -42 2 -43 1 1 -62z"/>
<path d="M2840 2850 c0 -11 -5 -20 -10 -20 -7 0 -7 -6 -1 -18 6 -10 7 -28 4
-40 -3 -13 -1 -22 6 -22 7 0 11 22 11 60 0 33 -2 60 -5 60 -3 0 -5 -9 -5 -20z"/>
<path d="M3000 2810 c0 -33 4 -60 10 -60 6 0 10 19 10 43 l1 42 18 -34 19 -35
18 35 19 34 6 -45 c6 -43 6 -43 7 18 1 34 -2 62 -7 62 -5 0 -17 -19 -26 -42
l-17 -43 -19 43 c-26 59 -39 53 -39 -18z"/>
<path d="M3310 2810 c0 -35 3 -60 7 -57 7 8 5 108 -2 116 -3 2 -5 -24 -5 -59z"/>
<path d="M994 2825 c-26 -62 -19 -67 41 -30 45 27 41 34 -6 9 -30 -15 -31 -15
-24 8 4 13 10 29 12 36 12 29 -9 9 -23 -23z"/>
<path d="M3498 2850 c-5 -16 3 -100 11 -100 3 0 5 23 4 51 -1 50 -7 71 -15 49z"/>
<path d="M1590 2825 c37 -27 40 -29 40 -17 0 8 -53 42 -66 42 -4 0 7 -11 26
-25z"/>
<path d="M1490 2808 c-11 -12 -20 -25 -20 -29 0 -9 80 -69 92 -69 4 0 15 12
25 26 19 29 8 60 -21 58 -9 -1 -16 4 -16 11 0 11 -20 25 -35 25 -3 0 -13 -10
-25 -22z m50 -8 c0 -20 -13 -40 -26 -40 -20 0 -29 27 -14 45 11 14 40 10 40
-5z m38 -59 c-13 -18 -17 -19 -34 -7 -18 14 -18 15 0 35 17 19 22 20 34 7 13
-12 13 -17 0 -35z"/>
<path d="M2177 2819 c6 -8 13 -27 16 -44 4 -23 4 -20 3 9 -1 25 -6 41 -16 44
-12 4 -13 2 -3 -9z"/>
<path d="M2230 2811 c-15 -29 4 -63 33 -59 18 2 22 10 22 38 0 28 -4 36 -22
38 -14 2 -26 -4 -33 -17z m50 -21 c0 -23 -4 -30 -20 -30 -16 0 -20 7 -20 30 0
23 4 30 20 30 16 0 20 -7 20 -30z"/>
<path d="M2374 2816 c-9 -24 0 -59 16 -64 12 -4 13 -2 3 9 -6 8 -10 27 -9 42
4 29 -1 35 -10 13z"/>
<path d="M2417 2810 c3 -11 9 -20 14 -20 11 0 11 3 3 24 -9 23 -23 20 -17 -4z"/>
<path d="M2604 2816 c-3 -8 -4 -25 -2 -38 2 -18 9 -23 33 -23 27 0 30 3 30 34
0 22 -6 36 -15 39 -13 4 -13 3 -2 -11 16 -19 7 -57 -14 -57 -21 0 -29 29 -15
51 7 12 8 19 1 19 -6 0 -13 -6 -16 -14z"/>
<path d="M2694 2816 c-3 -8 -4 -25 -2 -38 2 -18 9 -23 33 -23 27 0 30 3 30 34
0 22 -6 36 -15 39 -13 4 -13 3 -2 -11 16 -19 7 -57 -14 -57 -21 0 -29 29 -15
51 7 12 8 19 1 19 -6 0 -13 -6 -16 -14z"/>
<path d="M2784 2816 c-11 -27 1 -61 21 -64 18 -2 18 -2 3 8 -21 13 -23 41 -6
58 9 9 9 12 0 12 -7 0 -15 -6 -18 -14z"/>
<path d="M2880 2810 c0 -13 7 -20 19 -20 26 0 37 -20 20 -32 -12 -8 -11 -9 1
-5 27 7 23 36 -5 43 -17 4 -24 11 -21 20 3 8 1 14 -4 14 -6 0 -10 -9 -10 -20z"/>
<path d="M3188 2790 c2 -22 8 -40 13 -40 10 0 12 40 3 64 -11 29 -20 16 -16
-24z"/>
<path d="M3230 2790 c0 -22 4 -40 9 -40 5 0 11 18 13 40 2 28 0 40 -9 40 -8 0
-13 -14 -13 -40z"/>
<path d="M3343 2812 c-9 -15 -7 -23 8 -43 20 -26 25 -19 8 12 -7 15 -7 24 2
35 6 8 7 14 3 14 -5 0 -14 -8 -21 -18z"/>
<path d="M3404 2805 c-6 -26 9 -55 30 -55 6 0 5 4 -3 9 -9 6 -12 20 -9 40 5
37 -9 42 -18 6z"/>
<path d="M3454 2809 c0 -10 4 -19 8 -19 4 0 8 6 8 14 0 8 -4 17 -8 20 -4 2 -8
-4 -8 -15z"/>
<path d="M0 2802 c0 -5 7 -15 15 -22 8 -7 15 -8 15 -2 0 5 -7 15 -15 22 -8 7
-15 8 -15 2z"/>
<path d="M1056 2774 c-28 -28 -13 -75 24 -73 9 0 6 4 -7 9 -22 9 -30 30 -16
43 3 4 17 -2 29 -14 l22 -21 12 22 c22 41 -30 69 -64 34z m54 -14 c0 -23 -10
-26 -28 -8 -18 18 -15 28 8 28 13 0 20 -7 20 -20z"/>
<path d="M3140 2770 c0 -11 4 -20 9 -20 5 0 7 9 4 20 -3 11 -7 20 -9 20 -2 0
-4 -9 -4 -20z"/>
<path d="M35 2710 c-14 -22 -25 -45 -25 -52 0 -7 9 2 20 20 11 17 23 32 28 32
4 0 8 9 9 20 2 29 -4 25 -32 -20z"/>
<path d="M655 2653 c-33 -36 -33 -70 0 -85 22 -10 29 -9 47 9 l20 21 -23 13
c-21 11 -23 10 -11 -3 18 -22 -11 -47 -33 -28 -21 17 -19 30 8 64 26 33 57 31
57 -4 0 -11 5 -20 10 -20 16 0 11 26 -8 43 -25 23 -37 21 -67 -10z"/>
<path d="M732 2571 c-30 -41 -28 -52 4 -18 14 15 24 32 22 38 -2 6 -13 -3 -26
-20z"/>
<path d="M775 2570 c3 -5 8 -10 11 -10 2 0 4 5 4 10 0 6 -5 10 -11 10 -5 0 -7
-4 -4 -10z"/>
<path d="M790 2530 c-11 -11 -20 -26 -20 -34 0 -18 26 -39 42 -33 9 4 7 6 -3
6 -20 1 -33 28 -18 37 6 3 18 -1 28 -10 10 -9 21 -13 24 -9 14 13 6 43 -13 53
-15 8 -24 6 -40 -10z m50 -15 c0 -8 -4 -15 -9 -15 -5 0 -14 7 -21 15 -10 13
-9 15 9 15 12 0 21 -6 21 -15z"/>
<path d="M4285 2510 c-28 -10 -4 -24 63 -36 19 -4 32 -2 32 4 0 6 -9 8 -19 5
-11 -3 -27 3 -38 14 -12 12 -26 17 -38 13z"/>
<path d="M854 2465 c-13 -20 -14 -28 -4 -40 7 -8 20 -14 29 -14 13 1 13 2 -1
6 -10 2 -18 14 -18 25 0 19 1 20 25 4 23 -15 26 -15 31 -1 18 45 -34 62 -62
20z m56 0 c0 -8 -4 -15 -9 -15 -5 0 -14 7 -21 15 -10 13 -9 15 9 15 12 0 21
-6 21 -15z"/>
<path d="M4242 2458 c-17 -17 -15 -58 4 -65 9 -3 26 5 43 21 21 20 30 23 39
14 16 -16 15 -23 -4 -43 -9 -9 -14 -18 -11 -21 10 -10 39 45 33 61 -11 30 -38
30 -61 0 -24 -28 -45 -27 -45 4 0 9 5 22 12 29 7 7 10 12 7 12 -3 0 -10 -5
-17 -12z"/>
<path d="M930 2419 c-12 -16 -20 -33 -17 -35 3 -3 13 6 22 20 10 14 24 26 31
26 19 0 18 -30 -2 -58 -8 -12 -11 -22 -7 -22 13 0 45 59 38 70 -3 5 -15 14
-25 20 -15 8 -23 4 -40 -21z"/>
<path d="M1060 2375 c-9 -11 -8 -20 6 -44 25 -42 6 -63 -26 -31 -12 12 -24 19
-27 17 -6 -7 34 -47 46 -47 5 0 17 7 25 16 15 14 15 18 -1 45 -13 22 -14 32
-5 41 9 9 16 7 32 -7 21 -19 29 -8 8 13 -16 16 -43 15 -58 -3z"/>
<path d="M2101 2345 c-47 -15 -95 -54 -116 -95 -16 -32 -30 -111 -16 -90 6 8
11 23 11 34 0 36 45 98 88 123 98 58 210 23 265 -82 9 -16 16 -24 17 -16 0 27
-42 82 -83 106 -54 31 -111 38 -166 20z"/>
<path d="M4221 2316 c-7 -9 -11 -21 -8 -28 4 -8 6 -7 6 5 1 9 8 17 16 17 11 0
14 -7 9 -25 -4 -18 -1 -27 11 -31 19 -8 30 2 39 32 5 16 2 23 -11 27 -10 2
-25 8 -34 11 -9 4 -21 0 -28 -8z m59 -30 c0 -8 -4 -17 -9 -21 -12 -7 -24 12
-16 25 9 15 25 12 25 -4z"/>
<path d="M1143 2313 c-7 -3 -13 -10 -13 -18 0 -7 -7 -18 -15 -25 -8 -7 -15
-20 -15 -28 0 -12 5 -9 16 8 10 14 23 30 32 37 16 14 13 32 -5 26z"/>
<path d="M4190 2245 c0 -5 56 -35 65 -35 3 0 4 4 1 9 -6 10 -66 33 -66 26z"/>
<path d="M2349 2153 c-4 -34 -19 -73 -43 -114 -20 -34 -31 -57 -23 -51 8 7 28
40 46 75 24 47 32 74 29 103 -3 38 -3 37 -9 -13z"/>
<path d="M4163 2181 c-3 -13 -12 -17 -26 -15 -12 2 2 -7 32 -21 56 -27 70 -24
71 16 0 38 -67 56 -77 20z m57 -6 c10 -12 10 -19 1 -28 -14 -14 -44 2 -49 27
-4 21 31 22 48 1z"/>
<path d="M13 2125 c2 -29 4 -30 51 -33 27 -2 53 1 59 7 8 8 -6 10 -43 8 -49
-2 -54 0 -61 23 -7 23 -8 23 -6 -5z"/>
<path d="M1970 2124 c0 -11 16 -47 36 -80 40 -66 141 -204 150 -204 4 0 -6 16
-21 36 -65 85 -139 200 -151 233 -9 23 -13 29 -14 15z"/>
<path d="M2685 2065 l-37 -45 24 -20 c30 -26 62 -22 66 8 2 12 9 22 17 22 23
0 25 28 4 54 -11 14 -24 26 -29 26 -4 0 -24 -20 -45 -45z m63 13 c18 -18 14
-38 -7 -38 -23 0 -35 15 -27 35 7 18 18 19 34 3z m-28 -43 c12 -15 7 -45 -8
-45 -4 0 -17 6 -27 14 -16 12 -17 16 -6 30 17 20 25 20 41 1z"/>
<path d="M4124 2093 c-5 -15 -18 -47 -31 -75 -4 -9 68 -40 75 -33 3 3 -9 10
-26 16 -33 11 -43 36 -18 45 8 3 24 0 36 -6 12 -6 24 -9 27 -7 2 3 -8 11 -24
19 -54 26 -26 54 32 34 20 -8 20 -7 1 8 -26 21 -65 20 -72 -1z"/>
<path d="M27 2053 c-4 -3 -7 -20 -7 -36 0 -28 2 -29 31 -23 17 3 35 6 40 6 5
0 8 12 8 28 -2 23 -2 24 -6 5 -6 -30 -19 -29 -27 2 -6 24 -25 33 -39 18z m27
-19 c9 -22 8 -24 -9 -24 -8 0 -15 9 -15 20 0 24 15 27 24 4z"/>
<path d="M2763 1980 c-24 -29 -30 -45 -13 -35 14 9 52 65 43 64 -4 0 -18 -13
-30 -29z"/>
<path d="M4361 1981 c-7 -5 -9 -11 -4 -14 18 -11 93 -20 93 -11 0 5 -14 10
-31 10 -17 1 -34 6 -38 12 -4 6 -12 7 -20 3z"/>
<path d="M70 1965 c-14 -8 -36 -15 -50 -16 -21 -1 -18 -3 15 -14 22 -8 49 -13
60 -13 11 0 4 4 -15 10 l-35 10 35 19 c19 10 31 18 25 18 -5 0 -21 -6 -35 -14z"/>
<path d="M2806 1964 c-4 -9 0 -24 9 -34 11 -12 12 -19 3 -28 -9 -9 -9 -12 0
-12 19 0 26 28 12 45 -19 22 -7 41 13 21 9 -10 17 -13 17 -7 0 9 -31 31 -43
31 -3 0 -8 -7 -11 -16z"/>
<path d="M4098 1962 c20 -10 31 -22 29 -31 -3 -16 -12 -17 -57 -6 -24 6 -24 5
3 -10 35 -20 57 -16 68 12 7 19 3 25 -21 38 -16 8 -35 15 -42 14 -7 0 2 -8 20
-17z"/>
<path d="M2215 1909 c-26 -33 -45 -62 -43 -64 2 -3 15 10 28 28 13 17 35 47
48 65 43 57 17 34 -33 -29z"/>
<path d="M2876 1918 c-20 -23 -36 -46 -36 -52 0 -6 10 1 21 17 39 51 67 25 32
-31 l-17 -27 27 24 c31 28 33 38 11 63 -14 14 -14 20 -4 33 7 8 10 15 7 15 -3
0 -22 -19 -41 -42z"/>
<path d="M2780 1921 c0 -6 4 -13 10 -16 6 -3 7 1 4 9 -7 18 -14 21 -14 7z"/>
<path d="M4317 1923 c-16 -15 -6 -52 15 -59 17 -5 27 0 43 20 11 14 26 26 33
26 16 0 15 -42 0 -60 -11 -12 -10 -12 5 0 23 17 19 64 -7 68 -11 3 -27 -7 -41
-24 -25 -32 -50 -25 -41 12 7 25 4 29 -7 17z"/>
<path d="M4647 1920 c14 -15 89 -25 96 -13 3 4 -7 8 -21 9 -15 0 -40 4 -57 8
-24 7 -28 6 -18 -4z"/>
<path d="M4004 1892 c3 -5 26 -17 52 -27 37 -14 48 -15 57 -5 9 10 9 11 0 6
-6 -3 -35 3 -63 14 -28 11 -49 16 -46 12z"/>
<path d="M2254 1880 c-11 -4 -33 -22 -47 -40 -66 -78 -7 -200 98 -200 101 0
159 107 102 191 -36 53 -95 73 -153 49z m140 -53 c40 -54 20 -133 -41 -162
-47 -23 -95 -13 -127 26 -35 42 -41 71 -21 113 39 81 137 93 189 23z"/>
<path d="M2240 1805 c0 -9 9 -15 25 -15 24 0 25 -3 25 -55 0 -42 3 -55 15 -55
12 0 15 13 15 55 0 52 1 55 25 55 16 0 25 6 25 15 0 12 -14 15 -65 15 -51 0
-65 -3 -65 -15z"/>
<path d="M4967 1883 c-10 -9 -9 -41 1 -47 5 -3 9 8 9 24 0 33 -1 33 -10 23z"/>
<path d="M4605 1861 c-15 -49 32 -70 61 -26 9 14 23 25 30 25 17 0 19 -41 2
-58 -9 -9 -9 -12 0 -12 18 0 31 42 20 63 -13 25 -47 21 -60 -8 -11 -26 -32
-33 -43 -15 -3 5 -1 19 5 30 6 12 7 20 1 20 -5 0 -12 -8 -16 -19z"/>
<path d="M114 1862 c-6 -4 -15 -20 -21 -37 -13 -41 -38 -39 -38 3 0 17 -3 32
-7 32 -14 0 -8 -57 7 -70 22 -18 45 -5 51 30 9 40 43 43 45 3 2 -25 2 -25 6
-5 3 13 -1 30 -7 38 -14 16 -20 17 -36 6z"/>
<path d="M2928 1835 c-12 -27 2 -55 28 -55 19 0 46 44 38 64 -10 25 -53 20
-66 -9z m58 4 c10 -17 -33 -56 -47 -42 -8 8 -8 17 0 32 13 23 36 28 47 10z"/>
<path d="M4010 1825 c-10 -13 -9 -19 6 -36 21 -23 52 -22 67 3 23 36 -45 67
-73 33z m60 -10 c17 -21 -1 -39 -29 -30 -27 8 -28 45 -2 45 10 0 24 -7 31 -15z"/>
<path d="M2996 1776 c-37 -45 -47 -68 -22 -47 11 9 20 10 35 1 17 -8 24 -7 41
10 21 21 26 45 12 54 -5 3 -8 -4 -8 -16 1 -25 -29 -47 -44 -32 -7 7 -4 19 11
38 36 46 14 39 -25 -8z"/>
<path d="M4941 1788 c-11 -30 -3 -48 20 -48 12 0 19 7 18 18 0 10 -3 12 -6 5
-10 -26 -25 -13 -19 17 7 35 -1 40 -13 8z"/>
<path d="M4319 1784 c-20 -24 1 -49 42 -49 29 0 34 4 36 25 3 25 3 25 -7 3
-14 -35 -37 -29 -32 7 5 34 -16 42 -39 14z m27 -31 c-5 -12 -10 -13 -18 -5 -8
8 -8 15 3 28 15 18 25 4 15 -23z"/>
<path d="M3942 1758 c-21 -21 -13 -48 21 -68 55 -35 104 -8 79 42 l-12 23 6
-23 c9 -35 -11 -53 -46 -40 -16 5 -34 15 -40 23 -13 16 -3 43 18 48 14 4 14 5
2 6 -9 0 -21 -4 -28 -11z"/>
<path d="M83 1753 c-23 -3 -33 -10 -33 -21 0 -14 2 -14 9 -3 6 9 20 12 40 9
19 -3 36 1 42 9 12 14 9 14 -58 6z"/>
<path d="M4620 1753 c0 -4 12 -16 28 -25 l27 -17 -32 -1 c-22 0 -36 -6 -43
-19 -19 -37 -12 -57 25 -68 43 -13 47 -2 5 14 -34 13 -37 24 -14 47 21 21 68
20 90 -1 10 -11 15 -12 13 -4 -6 16 -99 86 -99 74z"/>
<path d="M3128 1712 c-45 -26 -66 -48 -33 -35 21 8 55 -25 48 -45 -4 -12 -3
-14 4 -7 8 8 43 99 43 112 0 8 -18 0 -62 -25z m36 -14 c-9 -31 -11 -33 -29
-18 -14 11 -13 14 2 26 26 20 35 17 27 -8z"/>
<path d="M4880 1720 c0 -4 9 -10 19 -13 14 -3 18 -11 14 -26 -7 -28 14 -51 46
-50 21 1 22 2 6 6 -52 13 -62 53 -13 53 17 0 29 2 26 5 -10 10 -98 33 -98 25z"/>
<path d="M4295 1695 c-3 -8 -7 -21 -9 -29 -4 -13 62 -41 72 -31 3 3 -3 7 -12
10 -9 3 -23 7 -32 10 -8 3 -14 13 -12 22 3 14 12 18 38 16 31 -2 32 -1 10 7
-38 12 -50 11 -55 -5z"/>
<path d="M3202 1658 c-35 -46 -38 -53 -20 -64 7 -4 8 -3 4 4 -4 7 7 30 25 52
18 22 30 42 28 45 -3 2 -20 -14 -37 -37z"/>
<path d="M3243 1626 c-34 -44 -41 -66 -22 -66 5 0 8 4 5 9 -3 5 8 26 24 46 25
32 37 56 28 55 -2 0 -18 -20 -35 -44z"/>
<path d="M4275 1612 c6 -6 26 -13 45 -16 23 -5 30 -4 20 2 -23 14 -77 25 -65
14z"/>
<path d="M4577 1603 c-15 -15 -6 -41 17 -47 13 -3 32 -9 42 -13 11 -4 15 -3
11 4 -4 6 -21 13 -38 17 -25 5 -30 10 -26 26 5 21 4 24 -6 13z"/>
<path d="M4893 1598 c-6 -7 -12 -23 -15 -34 -5 -18 0 -23 21 -27 14 -3 34 -9
44 -12 9 -4 17 -3 17 2 0 5 -15 13 -32 18 -50 15 -43 40 10 39 47 -1 45 10 -4
20 -20 5 -34 2 -41 -6z"/>
<path d="M3270 1580 c-25 -25 -25 -46 -1 -60 30 -16 38 -12 12 6 -16 12 -20
19 -12 27 7 7 16 6 29 -6 10 -9 22 -14 25 -10 10 9 8 41 -2 47 -5 4 -7 -3 -4
-14 6 -23 -9 -27 -26 -7 -8 10 -7 17 1 25 7 7 9 12 5 12 -4 0 -16 -9 -27 -20z"/>
<path d="M4226 1574 c-9 -8 -16 -26 -16 -38 0 -19 9 -25 55 -38 30 -8 55 -12
55 -8 0 4 -10 10 -21 13 -17 5 -20 11 -15 31 4 16 1 30 -10 40 -19 20 -29 20
-48 0z m44 -35 c0 -27 -3 -30 -22 -23 -30 9 -31 9 -23 33 3 12 15 21 26 21 15
0 19 -7 19 -31z"/>
<path d="M2042 1571 c-8 -4 -16 -26 -19 -48 -6 -43 13 -73 46 -73 22 0 47 27
36 38 -4 4 -10 1 -12 -5 -7 -21 -41 -15 -48 8 -10 32 3 69 24 69 11 0 21 -6
24 -12 2 -7 8 -10 12 -6 11 10 -14 38 -34 38 -9 0 -22 -4 -29 -9z"/>
<path d="M2562 1518 c3 -54 6 -63 23 -66 16 -3 18 -1 8 9 -7 7 -13 37 -13 66
0 30 -4 53 -10 53 -7 0 -10 -24 -8 -62z"/>
<path d="M2329 1553 c-4 -56 8 -103 26 -103 8 0 15 5 15 10 0 6 -4 10 -10 10
-15 0 -12 57 3 63 10 4 10 6 0 6 -7 1 -13 8 -13 16 0 21 -20 19 -21 -2z"/>
<path d="M3336 1518 c-31 -40 -26 -50 7 -13 14 16 29 25 35 21 16 -10 15 -31
-3 -46 -8 -7 -15 -17 -15 -23 0 -5 9 -2 20 8 25 23 26 57 1 72 -17 11 -23 8
-45 -19z"/>
<path d="M2147 1534 c-4 -4 -7 -22 -7 -40 0 -28 5 -35 26 -40 14 -4 30 -2 37
5 8 8 4 11 -16 11 -15 0 -27 5 -27 10 0 6 12 10 26 10 21 0 25 4 22 23 -2 15
-11 23 -28 25 -14 2 -29 0 -33 -4z m41 -22 c2 -7 -3 -12 -12 -12 -9 0 -16 7
-16 16 0 17 22 14 28 -4z"/>
<path d="M2230 1495 c0 -25 5 -45 10 -45 6 0 10 15 10 34 0 38 17 57 31 35 5
-8 9 -27 9 -43 0 -22 3 -27 11 -19 7 7 9 25 5 47 -6 33 -10 36 -41 36 -35 0
-35 0 -35 -45z"/>
<path d="M2390 1495 c0 -54 18 -60 22 -7 2 28 7 37 21 36 9 -1 17 2 17 7 0 5
-13 9 -30 9 -29 0 -30 -2 -30 -45z"/>
<path d="M2470 1530 c0 -5 8 -9 18 -7 26 3 27 -17 0 -23 -21 -5 -24 -11 -19
-40 0 -5 17 -10 36 -10 32 0 35 2 35 29 0 47 -10 61 -41 61 -16 0 -29 -4 -29
-10z m50 -50 c0 -5 -9 -10 -20 -10 -11 0 -20 5 -20 10 0 6 9 10 20 10 11 0 20
-4 20 -10z"/>
<path d="M4553 1514 c-10 -26 11 -49 43 -49 25 0 29 4 31 30 2 27 1 28 -5 6
-9 -30 -32 -40 -33 -14 0 10 -3 13 -6 6 -8 -21 -23 -15 -23 8 0 16 5 20 20 16
11 -3 20 -1 20 4 0 16 -40 10 -47 -7z"/>
<path d="M4860 1500 c0 -4 12 -10 28 -13 15 -3 35 -9 45 -12 9 -4 17 -3 17 2
0 5 -20 14 -45 20 -25 6 -45 7 -45 3z"/>
<path d="M3451 1444 c-36 -48 -36 -47 11 -74 22 -13 78 33 78 64 0 23 -28 56
-46 56 -5 0 -24 -21 -43 -46z m79 -7 c0 -18 -43 -57 -62 -57 -31 0 -31 27 -2
64 26 33 30 34 46 19 10 -9 18 -21 18 -26z"/>
<path d="M4810 1481 c0 -6 19 -21 43 -33 l42 -23 -52 -3 c-29 -2 -53 -7 -53
-12 0 -5 19 -20 43 -32 l42 -23 -52 -3 c-78 -4 -64 -22 17 -22 39 0 70 4 70 9
0 5 -17 20 -37 33 l-38 23 48 3 c68 4 64 15 -25 66 -27 15 -48 22 -48 17z"/>
<path d="M4523 1419 c-4 -14 -12 -19 -24 -16 -11 3 -17 2 -14 -3 5 -8 86 -30
107 -29 7 0 -3 6 -22 13 -49 18 -46 42 5 39 29 -2 36 0 25 7 -28 18 -71 12
-77 -11z"/>
<path d="M3530 1359 c-12 -16 -20 -32 -17 -35 2 -2 12 7 21 22 12 18 24 24 37
21 24 -7 24 -1 0 13 -16 8 -23 5 -41 -21z"/>
<path d="M4470 1346 c-6 -8 -10 -25 -8 -38 4 -28 68 -49 96 -31 20 12 23 54 4
61 -11 3 -11 1 -1 -17 21 -32 -1 -47 -48 -35 -43 10 -56 40 -27 61 10 7 13 13
7 13 -6 0 -16 -7 -23 -14z"/>
<path d="M1162 1108 c-12 -28 -20 -53 -18 -56 3 -2 19 6 36 18 17 12 33 20 36
18 2 -3 -3 -21 -11 -41 -8 -21 -11 -37 -7 -37 14 0 94 61 88 67 -3 3 -17 -4
-32 -16 -15 -12 -29 -20 -31 -18 -2 2 4 20 12 40 18 42 7 48 -32 17 -33 -26
-37 -21 -18 23 24 57 3 43 -23 -15z"/>
<path d="M1313 998 c-33 -40 -42 -68 -22 -68 5 0 7 4 4 10 -3 5 8 28 26 50 18
22 30 42 28 44 -2 2 -19 -14 -36 -36z"/>
<path d="M1268 1013 c-29 -34 -30 -48 -2 -21 15 15 26 30 23 33 -3 3 -13 -3
-21 -12z"/>
<path d="M3224 1006 c-3 -7 -1 -40 4 -72 l10 -59 1 73 c1 69 -4 88 -15 58z"/>
<path d="M1351 962 c-17 -22 -31 -46 -31 -53 0 -8 5 -5 12 6 6 11 22 32 36 47
14 15 23 30 20 33 -3 3 -20 -12 -37 -33z"/>
<path d="M3148 978 c6 -8 12 -34 15 -58 l4 -45 1 51 c2 40 -2 53 -14 58 -13 5
-14 3 -6 -6z"/>
<path d="M953 964 c-7 -3 -22 -21 -34 -40 -20 -34 -20 -36 -4 -54 19 -21 40
-26 49 -12 3 5 -5 8 -17 8 -33 -1 -34 38 -3 69 28 28 42 26 56 -9 l9 -21 0 22
c1 18 -26 46 -41 42 -2 0 -8 -3 -15 -5z"/>
<path d="M1382 917 c-25 -27 -30 -46 -6 -27 15 13 38 50 31 50 -2 0 -13 -10
-25 -23z"/>
<path d="M1443 899 c9 -5 17 -17 17 -24 0 -18 -12 -19 -27 -4 -15 15 -43 4
-43 -15 0 -23 38 -40 56 -25 28 23 35 47 18 63 -8 9 -21 16 -27 16 -7 0 -4 -5
6 -11z m-8 -40 c10 -15 -1 -23 -20 -15 -9 3 -13 10 -10 16 8 13 22 13 30 -1z"/>
<path d="M996 849 c-11 -16 -12 -27 -5 -41 19 -35 73 -9 67 33 -4 33 -41 38
-62 8z m54 -7 c0 -21 -18 -42 -37 -42 -16 0 -17 32 -1 48 18 18 38 15 38 -6z"/>
<path d="M1481 830 c-29 -40 -26 -51 5 -17 20 21 29 26 38 17 8 -8 6 -19 -6
-40 -19 -33 -10 -42 10 -10 13 22 37 26 47 9 4 -5 0 -18 -7 -27 -28 -33 -31
-47 -5 -23 32 29 35 61 7 68 -11 3 -20 9 -20 13 0 4 -11 15 -24 23 -22 15 -24
14 -45 -13z"/>
<path d="M4366 839 c-10 -31 -14 -119 -6 -119 5 0 10 19 12 43 l3 42 17 -37
c9 -21 19 -38 22 -38 2 0 13 15 25 33 l21 32 1 -50 1 -50 9 40 c4 22 8 56 8
75 0 35 0 35 -17 13 -9 -12 -24 -32 -33 -45 l-16 -22 -13 39 c-15 48 -28 64
-34 44z"/>
<path d="M1105 832 c-16 -11 -55 -63 -55 -73 0 -5 5 -9 10 -9 6 0 10 6 10 13
0 15 34 50 41 42 3 -2 5 5 5 15 0 11 0 20 -1 20 0 0 -5 -4 -10 -8z"/>
<path d="M1145 802 c-22 -16 -56 -73 -49 -83 4 -7 12 1 20 20 7 17 19 31 26
31 8 0 14 9 15 20 2 22 2 23 -12 12z"/>
<path d="M4817 793 c-18 -18 -5 -50 26 -64 45 -20 43 -44 -5 -43 -21 1 -35 -2
-33 -6 8 -13 40 -17 64 -9 31 12 24 48 -14 69 -41 23 -39 45 2 44 18 -1 30 2
27 7 -6 10 -57 12 -67 2z"/>
<path d="M4533 783 c23 -4 27 -9 27 -39 0 -27 -4 -34 -19 -34 -27 0 -35 17
-14 30 17 10 16 11 -2 8 -34 -5 -25 -41 12 -49 29 -6 33 -4 38 22 11 47 -2 69
-38 68 -30 -2 -31 -2 -4 -6z"/>
<path d="M4608 738 c-5 -41 -3 -57 6 -47 8 9 14 89 6 89 -4 0 -10 -19 -12 -42z"/>
<path d="M4658 734 c-2 -25 0 -48 4 -50 5 -3 8 11 8 30 0 19 5 38 10 41 6 4 8
11 5 16 -13 20 -23 7 -27 -37z"/>
<path d="M4700 770 c0 -6 4 -10 9 -10 6 0 12 -19 14 -42 l4 -43 1 46 c2 34 -2
48 -13 53 -8 3 -15 1 -15 -4z"/>
<path d="M4929 768 c-4 -74 -2 -102 6 -105 6 -1 11 22 11 57 1 33 -2 60 -7 60
-5 0 -9 -6 -10 -12z"/>
<path d="M2676 740 c10 -53 24 -84 33 -74 5 5 16 31 25 59 9 27 12 45 7 40 -5
-6 -14 -28 -21 -50 l-13 -40 -19 50 c-14 39 -16 43 -12 15z"/>
<path d="M3234 756 c-10 -26 1 -89 16 -94 12 -4 13 -2 3 9 -16 17 -17 71 -1
87 9 9 9 12 0 12 -7 0 -15 -6 -18 -14z"/>
<path d="M3285 760 c3 -5 11 -10 16 -10 6 0 7 5 4 10 -3 6 -11 10 -16 10 -6 0
-7 -4 -4 -10z"/>
<path d="M3431 718 c0 -32 2 -58 7 -58 4 0 6 19 4 43 -5 70 -10 76 -11 15z"/>
<path d="M1653 743 c-4 -9 1 -29 9 -44 14 -23 14 -30 3 -39 -10 -9 -19 -6 -34
9 -16 16 -21 18 -21 6 0 -9 11 -21 25 -27 21 -9 29 -9 42 4 16 16 14 28 -9 60
-10 14 -10 20 -1 29 10 10 17 8 33 -6 21 -19 29 -8 8 13 -17 17 -48 15 -55 -5z"/>
<path d="M1189 736 c13 -15 12 -20 -7 -39 -16 -16 -25 -18 -33 -10 -14 14 -2
36 14 27 9 -5 9 -4 0 6 -13 14 -33 6 -33 -14 0 -7 9 -21 20 -31 19 -17 20 -17
40 6 22 27 23 60 0 67 -13 5 -13 3 -1 -12z"/>
<path d="M2864 726 c-9 -24 0 -61 16 -62 11 -1 11 0 2 3 -9 3 -13 16 -10 39 4
36 1 44 -8 20z"/>
<path d="M2910 683 c-3 -34 -1 -58 3 -54 5 4 7 32 5 62 l-3 54 -5 -62z"/>
<path d="M2961 722 c-13 -25 -3 -62 18 -62 13 0 13 2 2 9 -9 6 -12 20 -9 40 5
36 3 38 -11 13z"/>
<path d="M3011 715 c-6 -70 -6 -94 2 -86 5 5 6 32 4 62 -2 30 -4 41 -6 24z"/>
<path d="M3063 700 c0 -25 2 -35 4 -22 2 12 2 32 0 45 -2 12 -4 2 -4 -23z"/>
<path d="M3700 708 l-11 -33 -15 30 c-11 24 -13 25 -8 5 4 -14 7 -40 7 -58 0
-18 3 -29 7 -25 12 14 42 104 37 109 -2 3 -10 -10 -17 -28z"/>
<path d="M2820 715 c0 -8 4 -15 10 -15 5 0 7 7 4 15 -4 8 -8 15 -10 15 -2 0
-4 -7 -4 -15z"/>
<path d="M3150 715 c0 -8 4 -15 10 -15 5 0 7 7 4 15 -4 8 -8 15 -10 15 -2 0
-4 -7 -4 -15z"/>
<path d="M3393 695 c0 -22 2 -30 4 -17 2 12 2 30 0 40 -3 9 -5 -1 -4 -23z"/>
<path d="M3533 695 c0 -22 2 -30 4 -17 2 12 2 30 0 40 -3 9 -5 -1 -4 -23z"/>
<path d="M3585 712 c4 -13 1 -29 -5 -37 -8 -9 -8 -15 -2 -15 6 0 12 6 15 13 3
9 8 8 23 -3 17 -14 18 -14 6 2 -8 10 -11 27 -7 40 5 18 4 20 -4 8 -10 -13 -12
-13 -22 0 -8 12 -9 10 -4 -8z"/>
<path d="M2770 696 c0 -14 4 -27 8 -30 5 -3 6 8 4 25 -5 35 -12 38 -12 5z"/>
<path d="M3100 696 c0 -14 4 -27 8 -30 5 -3 6 8 4 25 -5 35 -12 38 -12 5z"/>
<path d="M3301 705 c0 -12 -6 -26 -13 -33 -9 -9 -9 -12 0 -12 16 0 25 23 19
47 -4 16 -5 15 -6 -2z"/>
<path d="M1220 680 c-22 -22 -26 -45 -9 -56 7 -4 10 -1 7 7 -8 21 10 49 32 49
27 0 25 -19 -6 -54 -17 -19 -31 -26 -44 -23 -11 3 -18 1 -14 -4 11 -19 43 -8
73 27 33 37 33 47 1 64 -15 8 -24 6 -40 -10z"/>
<path d="M1735 674 c-34 -35 -49 -64 -36 -77 8 -8 11 -6 11 10 0 11 7 26 16
33 16 14 38 50 30 50 -2 0 -12 -7 -21 -16z"/>
<path d="M3341 674 c0 -11 3 -14 6 -6 3 7 2 16 -1 19 -3 4 -6 -2 -5 -13z"/>
<path d="M3480 675 c0 -8 4 -15 10 -15 5 0 7 7 4 15 -4 8 -8 15 -10 15 -2 0
-4 -7 -4 -15z"/>
<path d="M1292 618 c-11 -11 -17 -58 -8 -58 2 0 13 -3 23 -6 17 -5 17 -5 1 6
-19 11 -25 40 -9 40 5 0 14 -7 21 -15 7 -8 16 -12 21 -9 11 7 12 41 0 48 -4 3
-6 -7 -3 -22 5 -24 4 -26 -12 -13 -9 8 -15 20 -12 28 7 16 -6 17 -22 1z"/>
<path d="M1417 574 c-12 -12 -8 -36 9 -55 17 -19 12 -39 -11 -39 -8 0 -21 10
-29 22 -12 17 -16 18 -16 6 0 -22 25 -40 52 -36 29 4 35 34 13 58 -18 20 -13
40 10 40 8 0 19 -8 25 -17 10 -16 10 -16 8 2 -3 20 -46 33 -61 19z"/>
<path d="M1480 480 c-17 -22 -28 -45 -24 -51 4 -7 12 1 20 20 7 17 19 31 26
31 8 0 14 9 15 20 2 27 -1 26 -37 -20z"/>
<path d="M3514 434 c3 -8 6 -18 6 -20 0 -2 5 -4 10 -4 6 0 24 -10 40 -22 23
-17 33 -19 42 -10 9 9 7 12 -9 12 -12 0 -30 10 -40 23 -23 29 -58 44 -49 21z"/>
<path d="M3446 391 c-21 -23 -18 -49 6 -65 13 -8 24 -6 46 11 22 16 32 19 41
10 17 -17 13 -34 -11 -51 -16 -11 -18 -16 -7 -16 23 0 39 21 39 51 0 38 -32
47 -67 19 -24 -18 -28 -19 -42 -6 -13 14 -12 18 9 41 13 14 19 25 13 25 -5 0
-18 -9 -27 -19z"/>
<path d="M3410 272 c0 -4 7 -18 16 -30 20 -29 14 -35 -21 -22 -15 6 -30 8 -33
6 -3 -3 4 -9 14 -12 71 -25 84 -34 84 -55 0 -17 3 -20 11 -12 8 8 2 27 -26 72
-35 58 -45 70 -45 53z"/>
<path d="M4360 265 c-23 -13 -21 -14 45 -14 66 0 68 1 45 14 -14 8 -34 14 -45
14 -11 0 -31 -6 -45 -14z"/>
<path d="M4360 201 c0 -17 -4 -33 -10 -36 -25 -16 -4 -25 56 -25 56 0 65 2 60
16 -3 9 -6 29 -6 45 0 28 -1 29 -50 29 -49 0 -50 -1 -50 -29z m63 7 c17 15 27
6 27 -24 0 -27 -17 -41 -22 -19 -3 13 -6 13 -30 1 -28 -15 -28 -15 -28 20 0
31 2 33 19 22 15 -9 23 -9 34 0z"/>
<path d="M3331 172 c-15 -28 13 -62 48 -62 17 0 31 7 35 16 9 24 7 31 -5 12
-10 -18 -49 -25 -49 -9 0 5 7 14 15 21 8 7 15 19 15 26 0 21 -48 17 -59 -4z
m39 -12 c-6 -11 -15 -20 -20 -20 -6 0 -10 9 -10 20 0 13 7 20 20 20 18 0 19
-3 10 -20z"/>
<path d="M3262 89 c-12 -19 -10 -24 20 -49 40 -34 53 -29 15 5 -15 15 -24 31
-21 40 8 20 20 19 55 -6 34 -24 39 -16 7 12 -30 24 -60 24 -76 -2z"/>
<path d="M3190 50 c0 -5 5 -10 11 -10 6 0 9 -8 7 -17 -4 -14 2 -18 29 -20 l34
-2 -37 30 c-41 32 -44 34 -44 19z"/>
<path d="M3930 16 c0 -9 5 -16 10 -16 6 0 10 4 10 9 0 6 -4 13 -10 16 -5 3
-10 -1 -10 -9z"/>
<path d="M4016 23 c-11 -11 -6 -23 9 -23 8 0 15 4 15 9 0 13 -16 22 -24 14z"/>
<path d="M4071 14 c0 -11 3 -14 6 -6 3 7 2 16 -1 19 -3 4 -6 -2 -5 -13z"/>
<path d="M4125 23 c11 -3 23 -10 27 -17 6 -8 8 -8 8 1 0 6 8 14 18 16 9 3 -3
5 -28 5 -25 0 -36 -3 -25 -5z"/>
<path d="M4260 16 c0 -9 5 -16 10 -16 6 0 10 4 10 9 0 6 -4 13 -10 16 -5 3
-10 -1 -10 -9z"/>
<path d="M4346 23 c-11 -11 -6 -23 9 -23 8 0 15 4 15 9 0 13 -16 22 -24 14z"/>
</g>
</svg>
