<?xml version="1.0" standalone="no"?>
<!DOCTYPE svg PUBLIC "-//W3C//DTD SVG 20010904//EN"
 "http://www.w3.org/TR/2001/REC-SVG-20010904/DTD/svg10.dtd">
<svg version="1.0" xmlns="http://www.w3.org/2000/svg"
 width="349.000000pt" height="369.000000pt" viewBox="0 0 349.000000 369.000000"
 preserveAspectRatio="xMidYMid meet">

<g transform="translate(0.000000,369.000000) scale(0.100000,-0.100000)"
fill="#000000" stroke="none">
<path d="M1635 3663 c-586 -75 -1074 -397 -1376 -908 -403 -685 -295 -1594
260 -2170 262 -272 602 -461 966 -536 129 -26 454 -37 588 -20 447 59 836 264
1140 601 102 113 261 355 255 388 -2 9 -329 182 -784 416 -430 221 -782 406
-784 411 -1 6 324 219 722 475 399 256 736 472 749 481 l24 16 -39 59 c-90
135 -256 312 -391 415 -261 200 -565 326 -888 369 -73 9 -375 12 -442 3z m365
-33 c425 -38 810 -218 1110 -519 103 -103 221 -249 224 -276 0 -8 -332 -227
-749 -494 -480 -308 -750 -486 -750 -497 0 -11 172 -104 555 -301 305 -156
664 -341 798 -410 l243 -124 -32 -57 c-167 -298 -461 -572 -774 -722 -478
-229 -1028 -237 -1508 -23 -622 277 -1030 876 -1063 1562 -34 684 353 1350
966 1665 313 161 638 226 980 196z"/>
<path d="M1917 3109 c-129 -31 -211 -133 -210 -264 1 -75 20 -121 73 -179 47
-51 125 -86 190 -86 97 0 203 69 243 159 25 54 28 146 8 205 -38 111 -189 193
-304 165z"/>
</g>
</svg>
